<svg width="140" height="140" viewBox="0 0 140 140" fill="none" xmlns="http://www.w3.org/2000/svg">
<g clip-path="url(#clip0)">
<path fill-rule="evenodd" clip-rule="evenodd" d="M139.988 69.9948C139.988 70.7895 139.989 71.5896 139.99 72.3942C140.016 91.1661 140.045 112.438 126.246 126.284C112.516 140.061 91.3775 140.024 72.6735 139.992C71.7744 139.99 70.881 139.989 69.9943 139.989C69.2086 139.989 68.4176 139.99 67.6222 139.991H67.6086H67.5948C48.823 140.017 27.5513 140.046 13.7055 126.247C-0.0715714 112.516 -0.0350327 91.378 -0.00270188 72.674C-0.00114781 71.7749 0.000396542 70.8815 0.000396542 69.9948C0.000396542 69.2138 -0.000641763 68.4276 -0.00168594 67.6369C-0.026491 48.8549 -0.0546121 27.562 13.7544 13.706C27.4848 -0.0711041 48.6233 -0.0345443 67.3167 -0.00221344C68.2153 -0.00065942 69.1081 0.000884837 69.9943 0.000884837C70.7747 0.000884837 71.5604 -0.000153362 72.3506 -0.00119749C91.1227 -0.0260026 112.427 -0.0541535 126.283 13.7549C140.06 27.4853 140.024 48.6238 139.991 67.3172C139.99 68.2157 139.988 69.1086 139.988 69.9948ZM77.8858 33.4064H33.1117C29.1514 33.4064 25.941 36.6168 25.941 40.5771C25.941 44.5373 29.1514 47.7478 33.1117 47.7478H77.8858C81.846 47.7478 85.0565 44.5373 85.0565 40.5771C85.0565 36.6168 81.846 33.4064 77.8858 33.4064ZM47.7711 62.8233H92.5452C96.5054 62.8233 99.7159 66.0337 99.7159 69.994C99.7159 73.9543 96.5054 77.1647 92.5452 77.1647H47.7711C43.8109 77.1647 40.6004 73.9543 40.6004 69.994C40.6004 66.0337 43.8109 62.8233 47.7711 62.8233ZM77.8855 92.2525H62.4305C58.4703 92.2525 55.2598 95.463 55.2598 99.4232C55.2598 103.383 58.4703 106.594 62.4305 106.594H77.8855C81.8458 106.594 85.0562 103.383 85.0562 99.4232C85.0562 95.463 81.8458 92.2525 77.8855 92.2525ZM106.886 33.4065C110.846 33.4065 114.057 36.6169 114.057 40.5772C114.057 44.5375 110.846 47.7479 106.886 47.7479C102.926 47.7479 99.7154 44.5375 99.7154 40.5772C99.7154 36.6169 102.926 33.4065 106.886 33.4065Z" fill="black"/>
</g>
<defs>
<clipPath id="clip0">
<rect width="140" height="140" fill="white"/>
</clipPath>
</defs>
</svg>
